<svg width="1800" height="900" viewBox="0 0 1800 900" fill="none" xmlns="http://www.w3.org/2000/svg">
  <defs>
    <linearGradient id="bg" x1="0" y1="0" x2="1800" y2="900" gradientUnits="userSpaceOnUse">
      <stop stop-color="#26343C"/>
      <stop offset="0.38" stop-color="#DDE6E2"/>
      <stop offset="0.66" stop-color="#61A9C8"/>
      <stop offset="1" stop-color="#C99459"/>
    </linearGradient>
    <linearGradient id="metal" x1="0" y1="0" x2="1" y2="1">
      <stop stop-color="#F7F7F4"/>
      <stop offset="0.32" stop-color="#BFC7CA"/>
      <stop offset="0.69" stop-color="#FFFFFF"/>
      <stop offset="1" stop-color="#8A9296"/>
    </linearGradient>
    <filter id="shadow" x="-20%" y="-20%" width="140%" height="140%">
      <feDropShadow dx="0" dy="24" stdDeviation="24" flood-opacity="0.28"/>
    </filter>
  </defs>
  <rect width="1800" height="900" fill="url(#bg)"/>
  <rect x="1035" y="0" width="765" height="900" fill="#B87C42" opacity="0.86"/>
  <rect x="1098" y="0" width="32" height="900" fill="#9D6634" opacity="0.55"/>
  <rect x="1260" y="0" width="38" height="900" fill="#D7AA73" opacity="0.25"/>
  <rect x="1500" y="0" width="28" height="900" fill="#8C552D" opacity="0.45"/>
  <rect x="660" y="0" width="360" height="900" fill="#1D2D35"/>
  <rect x="695" y="70" width="245" height="760" rx="18" fill="#E7ECE8" opacity="0.92"/>
  <rect x="723" y="104" width="188" height="700" rx="10" fill="#56666A" opacity="0.42"/>
  <rect x="840" y="260" width="120" height="320" rx="18" fill="url(#metal)" filter="url(#shadow)"/>
  <circle cx="900" cy="420" r="31" fill="#ECEFED" stroke="#6F777C" stroke-width="7"/>
  <circle cx="900" cy="420" r="9" fill="#6F777C"/>
  <path d="M914 420H965" stroke="#6F777C" stroke-width="10" stroke-linecap="round"/>
  <circle cx="954" cy="420" r="10" fill="#6F777C"/>
  <g filter="url(#shadow)">
    <path d="M1110 272C1235 240 1342 269 1415 354L1350 438C1260 382 1176 384 1094 431L1008 408C994 344 1028 295 1110 272Z" fill="#1D9BD4"/>
    <path d="M1011 406C1088 398 1163 417 1236 464C1260 480 1267 511 1252 536C1237 562 1204 571 1178 557C1120 527 1066 514 1016 519C981 522 954 495 953 462C952 430 977 410 1011 406Z" fill="#F5CFB9"/>
    <path d="M1206 485C1328 483 1446 510 1560 566L1533 660C1410 626 1297 617 1194 633L1206 485Z" fill="#1B8DCE"/>
  </g>
  <g filter="url(#shadow)">
    <rect x="874" y="390" width="280" height="110" rx="42" fill="url(#metal)" transform="rotate(7 874 390)"/>
    <rect x="837" y="384" width="98" height="124" rx="40" fill="#F5F4EF" stroke="#A9B0B4" stroke-width="8" transform="rotate(7 837 384)"/>
    <circle cx="885" cy="452" r="20" fill="#704735"/>
    <circle cx="885" cy="452" r="10" fill="#241913"/>
    <path d="M1062 450L1095 454" stroke="#7A8286" stroke-width="10" stroke-linecap="round"/>
  </g>
  <g filter="url(#shadow)">
    <path d="M1015 544C1085 524 1160 543 1238 600C1260 616 1266 648 1249 671C1230 698 1192 699 1168 678C1119 635 1064 622 1006 638C976 646 946 628 938 598C929 569 947 554 1015 544Z" fill="#F7D6C4"/>
    <path d="M645 618L1005 568C1027 565 1047 580 1050 602C1053 624 1038 644 1016 647L656 697C634 700 614 685 611 663C608 641 623 621 645 618Z" fill="#FF7A21"/>
    <rect x="570" y="615" width="120" height="92" rx="28" fill="#E85C14" transform="rotate(-8 570 615)"/>
  </g>
  <g opacity="0.88" filter="url(#shadow)">
    <circle cx="835" cy="205" r="26" fill="#F3F5F2"/>
    <path d="M835 178V105" stroke="#F3F5F2" stroke-width="12" stroke-linecap="round"/>
    <path d="M835 105C835 73 860 48 892 48C924 48 949 73 949 105V132" stroke="#F3F5F2" stroke-width="20" stroke-linecap="round"/>
    <path d="M835 205L792 249" stroke="#F3F5F2" stroke-width="13" stroke-linecap="round"/>
    <path d="M835 205L887 253" stroke="#F3F5F2" stroke-width="13" stroke-linecap="round"/>
    <path d="M792 249L776 233M792 249L809 265" stroke="#F3F5F2" stroke-width="9" stroke-linecap="round"/>
    <path d="M887 253L902 235M887 253L874 271" stroke="#F3F5F2" stroke-width="9" stroke-linecap="round"/>
  </g>
  <circle cx="1418" cy="186" r="160" fill="white" opacity="0.09"/>
  <circle cx="1550" cy="730" r="210" fill="white" opacity="0.08"/>
  <rect width="1800" height="900" fill="url(#bg)" opacity="0.08"/>
</svg>
